<svg id="visual" viewBox="0 0 1920 1080" width="1920" height="1080" xmlns="http://www.w3.org/2000/svg" xmlns:xlink="http://www.w3.org/1999/xlink" version="1.1"><g stroke-width="1" stroke-linejoin="bevel"><path d="M845.3 578L861.3 687L1086.7 577Z" fill="#246688" stroke="#246688"></path><path d="M861.3 687L1058.7 729L1086.7 577Z" fill="#246688" stroke="#246688"></path><path d="M1086.7 577L838.3 387L845.3 578Z" fill="#277297" stroke="#277297"></path><path d="M604 860L890.3 893L861.3 687Z" fill="#297ea6" stroke="#297ea6"></path><path d="M861.3 687L890.3 893L1058.7 729Z" fill="#297ea6" stroke="#297ea6"></path><path d="M1086.7 577L1043.7 334L838.3 387Z" fill="#112e42" stroke="#112e42"></path><path d="M1085.7 917L1246 727L1058.7 729Z" fill="#246688" stroke="#246688"></path><path d="M1058.7 729L1246 727L1086.7 577Z" fill="#297ea6" stroke="#297ea6"></path><path d="M1086.7 577L1266 555L1043.7 334Z" fill="#112e42" stroke="#112e42"></path><path d="M1246 727L1266 555L1086.7 577Z" fill="#277297" stroke="#277297"></path><path d="M890.3 893L1085.7 917L1058.7 729Z" fill="#1d4e6b" stroke="#1d4e6b"></path><path d="M838.3 387L658 504L845.3 578Z" fill="#297ea6" stroke="#297ea6"></path><path d="M845.3 578L609 719L861.3 687Z" fill="#1d4e6b" stroke="#1d4e6b"></path><path d="M658 504L609 719L845.3 578Z" fill="#19435d" stroke="#19435d"></path><path d="M1266 555L1287 345L1043.7 334Z" fill="#0c2435" stroke="#0c2435"></path><path d="M1085.7 917L1274 912L1246 727Z" fill="#277297" stroke="#277297"></path><path d="M1246 727L1499.3 733L1266 555Z" fill="#0c2435" stroke="#0c2435"></path><path d="M1266 555L1530.3 521L1287 345Z" fill="#112e42" stroke="#112e42"></path><path d="M609 719L604 860L861.3 687Z" fill="#277297" stroke="#277297"></path><path d="M890.3 893L1036.7 1080L1085.7 917Z" fill="#277297" stroke="#277297"></path><path d="M676 163L638 324L838.3 387Z" fill="#15384f" stroke="#15384f"></path><path d="M838.3 387L638 324L658 504Z" fill="#1d4e6b" stroke="#1d4e6b"></path><path d="M391.7 531L452.7 745L609 719Z" fill="#081a28" stroke="#081a28"></path><path d="M830.3 1080L1036.7 1080L890.3 893Z" fill="#19435d" stroke="#19435d"></path><path d="M1085.7 917L1270 1080L1274 912Z" fill="#19435d" stroke="#19435d"></path><path d="M1287 345L1082.7 157L1043.7 334Z" fill="#00101c" stroke="#00101c"></path><path d="M1043.7 334L846.3 142L838.3 387Z" fill="#205a7a" stroke="#205a7a"></path><path d="M675 1080L830.3 1080L890.3 893Z" fill="#277297" stroke="#277297"></path><path d="M1082.7 157L846.3 142L1043.7 334Z" fill="#15384f" stroke="#15384f"></path><path d="M1517.3 370L1300 210L1287 345Z" fill="#112e42" stroke="#112e42"></path><path d="M1287 345L1300 210L1082.7 157Z" fill="#081a28" stroke="#081a28"></path><path d="M609 719L452.7 745L604 860Z" fill="#15384f" stroke="#15384f"></path><path d="M604 860L675 1080L890.3 893Z" fill="#246688" stroke="#246688"></path><path d="M391.7 531L609 719L658 504Z" fill="#15384f" stroke="#15384f"></path><path d="M846.3 142L676 163L838.3 387Z" fill="#1d4e6b" stroke="#1d4e6b"></path><path d="M638 324L442.7 377L658 504Z" fill="#00101c" stroke="#00101c"></path><path d="M1274 912L1499.3 733L1246 727Z" fill="#0c2435" stroke="#0c2435"></path><path d="M412.7 1080L675 1080L604 860Z" fill="#112e42" stroke="#112e42"></path><path d="M1036.7 1080L1270 1080L1085.7 917Z" fill="#297ea6" stroke="#297ea6"></path><path d="M1274 912L1532.3 904L1499.3 733Z" fill="#112e42" stroke="#112e42"></path><path d="M1499.3 733L1530.3 521L1266 555Z" fill="#081a28" stroke="#081a28"></path><path d="M396.7 163L442.7 377L638 324Z" fill="#112e42" stroke="#112e42"></path><path d="M442.7 377L391.7 531L658 504Z" fill="#0c2435" stroke="#0c2435"></path><path d="M214.3 758L431.7 892L452.7 745Z" fill="#081a28" stroke="#081a28"></path><path d="M452.7 745L431.7 892L604 860Z" fill="#246688" stroke="#246688"></path><path d="M1530.3 521L1517.3 370L1287 345Z" fill="#1d4e6b" stroke="#1d4e6b"></path><path d="M1303 0L1047.7 0L1082.7 157Z" fill="#277297" stroke="#277297"></path><path d="M1082.7 157L1047.7 0L846.3 142Z" fill="#297ea6" stroke="#297ea6"></path><path d="M846.3 142L642 0L676 163Z" fill="#112e42" stroke="#112e42"></path><path d="M1303 0L1082.7 157L1300 210Z" fill="#205a7a" stroke="#205a7a"></path><path d="M1047.7 0L859.3 0L846.3 142Z" fill="#277297" stroke="#277297"></path><path d="M1474.3 1080L1532.3 904L1274 912Z" fill="#1d4e6b" stroke="#1d4e6b"></path><path d="M1499.3 733L1683.7 731L1530.3 521Z" fill="#15384f" stroke="#15384f"></path><path d="M1270 1080L1474.3 1080L1274 912Z" fill="#112e42" stroke="#112e42"></path><path d="M859.3 0L642 0L846.3 142Z" fill="#277297" stroke="#277297"></path><path d="M676 163L396.7 163L638 324Z" fill="#112e42" stroke="#112e42"></path><path d="M1520.3 164L1303 0L1300 210Z" fill="#15384f" stroke="#15384f"></path><path d="M1718.7 328L1520.3 164L1517.3 370Z" fill="#277297" stroke="#277297"></path><path d="M1517.3 370L1520.3 164L1300 210Z" fill="#00101c" stroke="#00101c"></path><path d="M431.7 892L412.7 1080L604 860Z" fill="#00101c" stroke="#00101c"></path><path d="M241.3 906L412.7 1080L431.7 892Z" fill="#00101c" stroke="#00101c"></path><path d="M1532.3 904L1683.7 731L1499.3 733Z" fill="#277297" stroke="#277297"></path><path d="M1530.3 521L1718.7 328L1517.3 370Z" fill="#081a28" stroke="#081a28"></path><path d="M1718.7 937L1683.7 731L1532.3 904Z" fill="#0c2435" stroke="#0c2435"></path><path d="M442.7 377L234.3 328L391.7 531Z" fill="#00101c" stroke="#00101c"></path><path d="M642 0L396.7 163L676 163Z" fill="#112e42" stroke="#112e42"></path><path d="M177.3 528L214.3 758L391.7 531Z" fill="#081a28" stroke="#081a28"></path><path d="M391.7 531L214.3 758L452.7 745Z" fill="#112e42" stroke="#112e42"></path><path d="M1683.7 731L1733.7 561L1530.3 521Z" fill="#00101c" stroke="#00101c"></path><path d="M214.3 758L241.3 906L431.7 892Z" fill="#297ea6" stroke="#297ea6"></path><path d="M396.7 163L234.3 328L442.7 377Z" fill="#00101c" stroke="#00101c"></path><path d="M234.3 328L177.3 528L391.7 531Z" fill="#15384f" stroke="#15384f"></path><path d="M1733.7 561L1718.7 328L1530.3 521Z" fill="#246688" stroke="#246688"></path><path d="M1474.3 1080L1718.7 937L1532.3 904Z" fill="#00101c" stroke="#00101c"></path><path d="M1920 759L1920 539L1733.7 561Z" fill="#00101c" stroke="#00101c"></path><path d="M1699.7 0L1508.3 0L1520.3 164Z" fill="#205a7a" stroke="#205a7a"></path><path d="M1520.3 164L1508.3 0L1303 0Z" fill="#15384f" stroke="#15384f"></path><path d="M642 0L394.7 0L396.7 163Z" fill="#15384f" stroke="#15384f"></path><path d="M396.7 163L252.3 152L234.3 328Z" fill="#112e42" stroke="#112e42"></path><path d="M394.7 0L252.3 152L396.7 163Z" fill="#112e42" stroke="#112e42"></path><path d="M0 542L0 683L177.3 528Z" fill="#112e42" stroke="#112e42"></path><path d="M1920 387L1734.7 206L1718.7 328Z" fill="#277297" stroke="#277297"></path><path d="M1718.7 328L1734.7 206L1520.3 164Z" fill="#00101c" stroke="#00101c"></path><path d="M0 909L241.3 906L214.3 758Z" fill="#246688" stroke="#246688"></path><path d="M0 909L206.3 1080L241.3 906Z" fill="#15384f" stroke="#15384f"></path><path d="M241.3 906L206.3 1080L412.7 1080Z" fill="#205a7a" stroke="#205a7a"></path><path d="M1474.3 1080L1740.7 1080L1718.7 937Z" fill="#0c2435" stroke="#0c2435"></path><path d="M1920 759L1733.7 561L1683.7 731Z" fill="#081a28" stroke="#081a28"></path><path d="M1733.7 561L1920 387L1718.7 328Z" fill="#112e42" stroke="#112e42"></path><path d="M394.7 0L250.3 0L252.3 152Z" fill="#19435d" stroke="#19435d"></path><path d="M0 542L177.3 528L0 358Z" fill="#1d4e6b" stroke="#1d4e6b"></path><path d="M1920 759L1683.7 731L1920 864Z" fill="#081a28" stroke="#081a28"></path><path d="M1920 159L1699.7 0L1734.7 206Z" fill="#15384f" stroke="#15384f"></path><path d="M1734.7 206L1699.7 0L1520.3 164Z" fill="#19435d" stroke="#19435d"></path><path d="M1920 864L1683.7 731L1718.7 937Z" fill="#1d4e6b" stroke="#1d4e6b"></path><path d="M177.3 528L0 683L214.3 758Z" fill="#0c2435" stroke="#0c2435"></path><path d="M177.3 528L234.3 328L0 358Z" fill="#246688" stroke="#246688"></path><path d="M0 358L234.3 328L0 178Z" fill="#1d4e6b" stroke="#1d4e6b"></path><path d="M1920 539L1920 387L1733.7 561Z" fill="#19435d" stroke="#19435d"></path><path d="M1920 1080L1920 864L1718.7 937Z" fill="#081a28" stroke="#081a28"></path><path d="M0 178L234.3 328L252.3 152Z" fill="#00101c" stroke="#00101c"></path><path d="M0 683L0 909L214.3 758Z" fill="#297ea6" stroke="#297ea6"></path><path d="M1920 387L1920 159L1734.7 206Z" fill="#081a28" stroke="#081a28"></path><path d="M1740.7 1080L1920 1080L1718.7 937Z" fill="#19435d" stroke="#19435d"></path><path d="M0 0L0 178L252.3 152Z" fill="#112e42" stroke="#112e42"></path><path d="M0 909L0 1080L206.3 1080Z" fill="#00101c" stroke="#00101c"></path><path d="M1920 159L1920 0L1699.7 0Z" fill="#277297" stroke="#277297"></path><path d="M250.3 0L0 0L252.3 152Z" fill="#205a7a" stroke="#205a7a"></path></g></svg>