<svg id="visual" viewBox="0 0 1920 1080" width="1920" height="1080" xmlns="http://www.w3.org/2000/svg" xmlns:xlink="http://www.w3.org/1999/xlink" version="1.1"><rect x="0" y="0" width="1920" height="1080" fill="#4e6672"></rect><defs><linearGradient id="grad1_0" x1="43.8%" y1="0%" x2="100%" y2="100%"><stop offset="14.444444444444446%" stop-color="#0f4c4a" stop-opacity="1"></stop><stop offset="85.55555555555554%" stop-color="#0f4c4a" stop-opacity="1"></stop></linearGradient></defs><defs><linearGradient id="grad1_1" x1="43.8%" y1="0%" x2="100%" y2="100%"><stop offset="14.444444444444446%" stop-color="#0f4c4a" stop-opacity="1"></stop><stop offset="85.55555555555554%" stop-color="#185051" stop-opacity="1"></stop></linearGradient></defs><defs><linearGradient id="grad1_2" x1="43.8%" y1="0%" x2="100%" y2="100%"><stop offset="14.444444444444446%" stop-color="#215458" stop-opacity="1"></stop><stop offset="85.55555555555554%" stop-color="#185051" stop-opacity="1"></stop></linearGradient></defs><defs><linearGradient id="grad1_3" x1="43.8%" y1="0%" x2="100%" y2="100%"><stop offset="14.444444444444446%" stop-color="#215458" stop-opacity="1"></stop><stop offset="85.55555555555554%" stop-color="#2a575e" stop-opacity="1"></stop></linearGradient></defs><defs><linearGradient id="grad1_4" x1="43.8%" y1="0%" x2="100%" y2="100%"><stop offset="14.444444444444446%" stop-color="#335b64" stop-opacity="1"></stop><stop offset="85.55555555555554%" stop-color="#2a575e" stop-opacity="1"></stop></linearGradient></defs><defs><linearGradient id="grad1_5" x1="43.8%" y1="0%" x2="100%" y2="100%"><stop offset="14.444444444444446%" stop-color="#335b64" stop-opacity="1"></stop><stop offset="85.55555555555554%" stop-color="#3c5f69" stop-opacity="1"></stop></linearGradient></defs><defs><linearGradient id="grad1_6" x1="43.8%" y1="0%" x2="100%" y2="100%"><stop offset="14.444444444444446%" stop-color="#45626e" stop-opacity="1"></stop><stop offset="85.55555555555554%" stop-color="#3c5f69" stop-opacity="1"></stop></linearGradient></defs><defs><linearGradient id="grad1_7" x1="43.8%" y1="0%" x2="100%" y2="100%"><stop offset="14.444444444444446%" stop-color="#45626e" stop-opacity="1"></stop><stop offset="85.55555555555554%" stop-color="#4e6672" stop-opacity="1"></stop></linearGradient></defs><defs><linearGradient id="grad2_0" x1="0%" y1="0%" x2="56.3%" y2="100%"><stop offset="14.444444444444446%" stop-color="#0f4c4a" stop-opacity="1"></stop><stop offset="85.55555555555554%" stop-color="#0f4c4a" stop-opacity="1"></stop></linearGradient></defs><defs><linearGradient id="grad2_1" x1="0%" y1="0%" x2="56.3%" y2="100%"><stop offset="14.444444444444446%" stop-color="#185051" stop-opacity="1"></stop><stop offset="85.55555555555554%" stop-color="#0f4c4a" stop-opacity="1"></stop></linearGradient></defs><defs><linearGradient id="grad2_2" x1="0%" y1="0%" x2="56.3%" y2="100%"><stop offset="14.444444444444446%" stop-color="#185051" stop-opacity="1"></stop><stop offset="85.55555555555554%" stop-color="#215458" stop-opacity="1"></stop></linearGradient></defs><defs><linearGradient id="grad2_3" x1="0%" y1="0%" x2="56.3%" y2="100%"><stop offset="14.444444444444446%" stop-color="#2a575e" stop-opacity="1"></stop><stop offset="85.55555555555554%" stop-color="#215458" stop-opacity="1"></stop></linearGradient></defs><defs><linearGradient id="grad2_4" x1="0%" y1="0%" x2="56.3%" y2="100%"><stop offset="14.444444444444446%" stop-color="#2a575e" stop-opacity="1"></stop><stop offset="85.55555555555554%" stop-color="#335b64" stop-opacity="1"></stop></linearGradient></defs><defs><linearGradient id="grad2_5" x1="0%" y1="0%" x2="56.3%" y2="100%"><stop offset="14.444444444444446%" stop-color="#3c5f69" stop-opacity="1"></stop><stop offset="85.55555555555554%" stop-color="#335b64" stop-opacity="1"></stop></linearGradient></defs><defs><linearGradient id="grad2_6" x1="0%" y1="0%" x2="56.3%" y2="100%"><stop offset="14.444444444444446%" stop-color="#3c5f69" stop-opacity="1"></stop><stop offset="85.55555555555554%" stop-color="#45626e" stop-opacity="1"></stop></linearGradient></defs><defs><linearGradient id="grad2_7" x1="0%" y1="0%" x2="56.3%" y2="100%"><stop offset="14.444444444444446%" stop-color="#4e6672" stop-opacity="1"></stop><stop offset="85.55555555555554%" stop-color="#45626e" stop-opacity="1"></stop></linearGradient></defs><g transform="translate(1920, 0)"><path d="M0 1026C-97.6 988.9 -195.2 951.8 -300.4 924.4C-405.5 897 -518.1 879.3 -593.7 817.1C-669.2 754.9 -707.6 648.2 -772.6 561.3C-837.6 474.4 -929.1 407.3 -975.8 317.1C-1022.4 226.8 -1024.2 113.4 -1026 0L0 0Z" fill="#4a6470"></path><path d="M0 897.8C-85.4 865.3 -170.8 832.9 -262.8 808.9C-354.8 784.9 -453.4 769.4 -519.5 715C-585.5 660.5 -619.2 567.2 -676 491.2C-732.9 415.1 -813 356.4 -853.8 277.4C-894.6 198.4 -896.2 99.2 -897.7 0L0 0Z" fill="#41616b"></path><path d="M0 769.5C-73.2 741.7 -146.4 713.9 -225.3 693.3C-304.1 672.8 -388.6 659.5 -445.2 612.8C-501.9 566.2 -530.7 486.2 -579.5 421C-628.2 355.8 -696.8 305.5 -731.8 237.8C-766.8 170.1 -768.2 85 -769.5 0L0 0Z" fill="#385d66"></path><path d="M0 641.3C-61 618.1 -122 594.9 -187.7 577.8C-253.4 560.6 -323.8 549.6 -371 510.7C-418.2 471.8 -442.3 405.1 -482.9 350.8C-523.5 296.5 -580.7 254.6 -609.9 198.2C-639 141.7 -640.1 70.9 -641.2 0L0 0Z" fill="#2f5961"></path><path d="M0 513C-48.8 494.5 -97.6 475.9 -150.2 462.2C-202.7 448.5 -259.1 439.7 -296.8 408.6C-334.6 377.5 -353.8 324.1 -386.3 280.7C-418.8 237.2 -464.6 203.7 -487.9 158.5C-511.2 113.4 -512.1 56.7 -513 0L0 0Z" fill="#26565b"></path><path d="M0 384.8C-36.6 370.8 -73.2 356.9 -112.6 346.7C-152.1 336.4 -194.3 329.7 -222.6 306.4C-250.9 283.1 -265.4 243.1 -289.7 210.5C-314.1 177.9 -348.4 152.7 -365.9 118.9C-383.4 85 -384.1 42.5 -384.7 0L0 0Z" fill="#1d5254"></path><path d="M0 256.5C-24.4 247.2 -48.8 238 -75.1 231.1C-101.4 224.3 -129.5 219.8 -148.4 204.3C-167.3 188.7 -176.9 162.1 -193.2 140.3C-209.4 118.6 -232.3 101.8 -243.9 79.3C-255.6 56.7 -256.1 28.3 -256.5 0L0 0Z" fill="#144e4e"></path><path d="M0 128.3C-12.2 123.6 -24.4 119 -37.5 115.6C-50.7 112.1 -64.8 109.9 -74.2 102.1C-83.6 94.4 -88.5 81 -96.6 70.2C-104.7 59.3 -116.1 50.9 -122 39.6C-127.8 28.3 -128 14.2 -128.2 0L0 0Z" fill="#0f4c4a"></path></g><g transform="translate(0, 1080)"><path d="M0 -1026C97.3 -988.3 194.5 -950.6 301 -926.3C407.5 -902.1 523.1 -891.3 603.1 -830.1C683 -768.8 727.1 -657.1 772.6 -561.3C818.1 -465.6 864.9 -385.7 907.3 -294.8C949.8 -203.9 987.9 -102 1026 0L0 0Z" fill="#4a6470"></path><path d="M0 -897.7C85.1 -864.8 170.2 -831.8 263.4 -810.5C356.5 -789.3 457.8 -779.9 527.7 -726.3C597.6 -672.7 636.3 -575 676 -491.2C715.8 -407.4 756.8 -337.5 793.9 -258C831 -178.4 864.4 -89.2 897.8 0L0 0Z" fill="#41616b"></path><path d="M0 -769.5C72.9 -741.2 145.9 -712.9 225.7 -694.7C305.6 -676.6 392.4 -668.5 452.3 -622.5C512.2 -576.6 545.4 -492.8 579.5 -421C613.6 -349.2 648.6 -289.3 680.5 -221.1C712.3 -152.9 740.9 -76.5 769.5 0L0 0Z" fill="#385d66"></path><path d="M0 -641.2C60.8 -617.7 121.6 -594.1 188.1 -579C254.7 -563.8 327 -557.1 376.9 -518.8C426.9 -480.5 454.5 -410.7 482.9 -350.8C511.3 -291 540.5 -241.1 567.1 -184.3C593.6 -127.4 617.4 -63.7 641.3 0L0 0Z" fill="#2f5961"></path><path d="M0 -513C48.6 -494.1 97.3 -475.3 150.5 -463.2C203.7 -451 261.6 -445.6 301.5 -415C341.5 -384.4 363.6 -328.6 386.3 -280.7C409 -232.8 432.4 -192.9 453.7 -147.4C474.9 -102 493.9 -51 513 0L0 0Z" fill="#26565b"></path><path d="M0 -384.7C36.5 -370.6 72.9 -356.5 112.9 -347.4C152.8 -338.3 196.2 -334.2 226.2 -311.3C256.1 -288.3 272.7 -246.4 289.7 -210.5C306.8 -174.6 324.3 -144.6 340.2 -110.6C356.2 -76.5 370.5 -38.2 384.8 0L0 0Z" fill="#1d5254"></path><path d="M0 -256.5C24.3 -247.1 48.6 -237.6 75.2 -231.6C101.9 -225.5 130.8 -222.8 150.8 -207.5C170.7 -192.2 181.8 -164.3 193.2 -140.3C204.5 -116.4 216.2 -96.4 226.8 -73.7C237.4 -51 247 -25.5 256.5 0L0 0Z" fill="#144e4e"></path><path d="M0 -128.2C12.2 -123.5 24.3 -118.8 37.6 -115.8C50.9 -112.8 65.4 -111.4 75.4 -103.8C85.4 -96.1 90.9 -82.1 96.6 -70.2C102.3 -58.2 108.1 -48.2 113.4 -36.9C118.7 -25.5 123.5 -12.7 128.3 0L0 0Z" fill="#0f4c4a"></path></g></svg>