<svg id="visual" viewBox="0 0 1920 1080" width="1920" height="1080" xmlns="http://www.w3.org/2000/svg" xmlns:xlink="http://www.w3.org/1999/xlink" version="1.1"><rect x="0" y="0" width="1920" height="1080" fill="#4e6672"></rect><defs><linearGradient id="grad1_0" x1="43.8%" y1="0%" x2="100%" y2="100%"><stop offset="14.444444444444446%" stop-color="#176b6b" stop-opacity="1"></stop><stop offset="85.55555555555554%" stop-color="#176b6b" stop-opacity="1"></stop></linearGradient></defs><defs><linearGradient id="grad1_1" x1="43.8%" y1="0%" x2="100%" y2="100%"><stop offset="14.444444444444446%" stop-color="#176b6b" stop-opacity="1"></stop><stop offset="85.55555555555554%" stop-color="#206a6e" stop-opacity="1"></stop></linearGradient></defs><defs><linearGradient id="grad1_2" x1="43.8%" y1="0%" x2="100%" y2="100%"><stop offset="14.444444444444446%" stop-color="#296a71" stop-opacity="1"></stop><stop offset="85.55555555555554%" stop-color="#206a6e" stop-opacity="1"></stop></linearGradient></defs><defs><linearGradient id="grad1_3" x1="43.8%" y1="0%" x2="100%" y2="100%"><stop offset="14.444444444444446%" stop-color="#296a71" stop-opacity="1"></stop><stop offset="85.55555555555554%" stop-color="#316972" stop-opacity="1"></stop></linearGradient></defs><defs><linearGradient id="grad1_4" x1="43.8%" y1="0%" x2="100%" y2="100%"><stop offset="14.444444444444446%" stop-color="#396873" stop-opacity="1"></stop><stop offset="85.55555555555554%" stop-color="#316972" stop-opacity="1"></stop></linearGradient></defs><defs><linearGradient id="grad1_5" x1="43.8%" y1="0%" x2="100%" y2="100%"><stop offset="14.444444444444446%" stop-color="#396873" stop-opacity="1"></stop><stop offset="85.55555555555554%" stop-color="#416873" stop-opacity="1"></stop></linearGradient></defs><defs><linearGradient id="grad1_6" x1="43.8%" y1="0%" x2="100%" y2="100%"><stop offset="14.444444444444446%" stop-color="#486773" stop-opacity="1"></stop><stop offset="85.55555555555554%" stop-color="#416873" stop-opacity="1"></stop></linearGradient></defs><defs><linearGradient id="grad1_7" x1="43.8%" y1="0%" x2="100%" y2="100%"><stop offset="14.444444444444446%" stop-color="#486773" stop-opacity="1"></stop><stop offset="85.55555555555554%" stop-color="#4e6672" stop-opacity="1"></stop></linearGradient></defs><defs><linearGradient id="grad2_0" x1="0%" y1="0%" x2="56.3%" y2="100%"><stop offset="14.444444444444446%" stop-color="#176b6b" stop-opacity="1"></stop><stop offset="85.55555555555554%" stop-color="#176b6b" stop-opacity="1"></stop></linearGradient></defs><defs><linearGradient id="grad2_1" x1="0%" y1="0%" x2="56.3%" y2="100%"><stop offset="14.444444444444446%" stop-color="#206a6e" stop-opacity="1"></stop><stop offset="85.55555555555554%" stop-color="#176b6b" stop-opacity="1"></stop></linearGradient></defs><defs><linearGradient id="grad2_2" x1="0%" y1="0%" x2="56.3%" y2="100%"><stop offset="14.444444444444446%" stop-color="#206a6e" stop-opacity="1"></stop><stop offset="85.55555555555554%" stop-color="#296a71" stop-opacity="1"></stop></linearGradient></defs><defs><linearGradient id="grad2_3" x1="0%" y1="0%" x2="56.3%" y2="100%"><stop offset="14.444444444444446%" stop-color="#316972" stop-opacity="1"></stop><stop offset="85.55555555555554%" stop-color="#296a71" stop-opacity="1"></stop></linearGradient></defs><defs><linearGradient id="grad2_4" x1="0%" y1="0%" x2="56.3%" y2="100%"><stop offset="14.444444444444446%" stop-color="#316972" stop-opacity="1"></stop><stop offset="85.55555555555554%" stop-color="#396873" stop-opacity="1"></stop></linearGradient></defs><defs><linearGradient id="grad2_5" x1="0%" y1="0%" x2="56.3%" y2="100%"><stop offset="14.444444444444446%" stop-color="#416873" stop-opacity="1"></stop><stop offset="85.55555555555554%" stop-color="#396873" stop-opacity="1"></stop></linearGradient></defs><defs><linearGradient id="grad2_6" x1="0%" y1="0%" x2="56.3%" y2="100%"><stop offset="14.444444444444446%" stop-color="#416873" stop-opacity="1"></stop><stop offset="85.55555555555554%" stop-color="#486773" stop-opacity="1"></stop></linearGradient></defs><defs><linearGradient id="grad2_7" x1="0%" y1="0%" x2="56.3%" y2="100%"><stop offset="14.444444444444446%" stop-color="#4e6672" stop-opacity="1"></stop><stop offset="85.55555555555554%" stop-color="#486773" stop-opacity="1"></stop></linearGradient></defs><g transform="translate(1920, 0)"><path d="M0 1026C-99.1 986.2 -198.2 946.5 -296.7 913C-395.2 879.6 -493.1 852.4 -583.7 803.4C-674.3 754.3 -757.5 683.3 -825.2 599.5C-892.9 515.7 -944.9 419.1 -975.8 317.1C-1006.7 215 -1016.3 107.5 -1026 0L0 0Z" fill="#4b6673"></path><path d="M0 897.8C-86.7 863 -173.4 828.2 -259.6 798.9C-345.8 769.6 -431.4 745.9 -510.7 702.9C-590 660 -662.8 597.9 -722 524.6C-781.3 451.3 -826.8 366.7 -853.8 277.4C-880.8 188.1 -889.3 94.1 -897.7 0L0 0Z" fill="#446773"></path><path d="M0 769.5C-74.3 739.7 -148.6 709.9 -222.5 684.8C-296.4 659.7 -369.8 639.3 -437.8 602.5C-505.7 565.7 -568.2 512.5 -618.9 449.7C-669.6 386.8 -708.7 314.3 -731.8 237.8C-755 161.2 -762.2 80.6 -769.5 0L0 0Z" fill="#3d6873"></path><path d="M0 641.3C-61.9 616.4 -123.8 591.5 -185.4 570.6C-247 549.7 -308.2 532.8 -364.8 502.1C-421.4 471.4 -473.5 427.1 -515.7 374.7C-558 322.3 -590.6 261.9 -609.9 198.2C-629.2 134.4 -635.2 67.2 -641.2 0L0 0Z" fill="#356973"></path><path d="M0 513C-49.5 493.1 -99.1 473.2 -148.3 456.5C-197.6 439.8 -246.5 426.2 -291.8 401.7C-337.1 377.1 -378.8 341.7 -412.6 299.8C-446.4 257.9 -472.5 209.6 -487.9 158.5C-503.3 107.5 -508.2 53.7 -513 0L0 0Z" fill="#2d6972"></path><path d="M0 384.8C-37.2 369.8 -74.3 354.9 -111.2 342.4C-148.2 329.8 -184.9 319.7 -218.9 301.3C-252.8 282.9 -284.1 256.3 -309.4 224.8C-334.8 193.4 -354.3 157.2 -365.9 118.9C-377.5 80.6 -381.1 40.3 -384.7 0L0 0Z" fill="#256a6f"></path><path d="M0 256.5C-24.8 246.6 -49.5 236.6 -74.2 228.3C-98.8 219.9 -123.3 213.1 -145.9 200.8C-168.6 188.6 -189.4 170.8 -206.3 149.9C-223.2 128.9 -236.2 104.8 -243.9 79.3C-251.7 53.7 -254.1 26.9 -256.5 0L0 0Z" fill="#1c6b6d"></path><path d="M0 128.3C-12.4 123.3 -24.8 118.3 -37.1 114.1C-49.4 109.9 -61.6 106.6 -73 100.4C-84.3 94.3 -94.7 85.4 -103.1 74.9C-111.6 64.5 -118.1 52.4 -122 39.6C-125.8 26.9 -127 13.4 -128.2 0L0 0Z" fill="#176b6b"></path></g><g transform="translate(0, 1080)"><path d="M0 -1026C111.8 -1022.5 223.7 -1019.1 317.1 -975.8C410.4 -932.5 485.4 -849.3 569 -783.1C652.6 -716.9 744.8 -667.7 816.3 -593.1C887.8 -518.4 938.6 -418.3 970.1 -315.2C1001.6 -212.1 1013.8 -106.1 1026 0L0 0Z" fill="#4b6673"></path><path d="M0 -897.7C97.9 -894.7 195.7 -891.7 277.4 -853.8C359.1 -815.9 424.7 -743.1 497.9 -685.2C571 -627.3 651.7 -584.3 714.3 -518.9C776.8 -453.6 821.3 -366 848.8 -275.8C876.4 -185.6 887.1 -92.8 897.8 0L0 0Z" fill="#446773"></path><path d="M0 -769.5C83.9 -766.9 167.7 -764.3 237.8 -731.8C307.8 -699.4 364 -637 426.7 -587.3C489.4 -537.7 558.6 -500.8 612.2 -444.8C665.9 -388.8 703.9 -313.7 727.6 -236.4C751.2 -159.1 760.3 -79.5 769.5 0L0 0Z" fill="#3d6873"></path><path d="M0 -641.2C69.9 -639.1 139.8 -636.9 198.2 -609.9C256.5 -582.8 303.4 -530.8 355.6 -489.5C407.9 -448.1 465.5 -417.3 510.2 -370.7C554.9 -324 586.6 -261.4 606.3 -197C626 -132.6 633.6 -66.3 641.3 0L0 0Z" fill="#356973"></path><path d="M0 -513C55.9 -511.3 111.8 -509.5 158.5 -487.9C205.2 -466.2 242.7 -424.7 284.5 -391.6C326.3 -358.5 372.4 -333.9 408.1 -296.5C443.9 -259.2 469.3 -209.1 485 -157.6C500.8 -106.1 506.9 -53 513 0L0 0Z" fill="#2d6972"></path><path d="M0 -384.7C41.9 -383.5 83.9 -382.2 118.9 -365.9C153.9 -349.7 182 -318.5 213.4 -293.7C244.7 -268.9 279.3 -250.4 306.1 -222.4C332.9 -194.4 352 -156.9 363.8 -118.2C375.6 -79.5 380.2 -39.8 384.8 0L0 0Z" fill="#256a6f"></path><path d="M0 -256.5C28 -255.6 55.9 -254.8 79.3 -243.9C102.6 -233.1 121.3 -212.3 142.2 -195.8C163.1 -179.2 186.2 -166.9 204.1 -148.3C222 -129.6 234.6 -104.6 242.5 -78.8C250.4 -53 253.4 -26.5 256.5 0L0 0Z" fill="#1c6b6d"></path><path d="M0 -128.2C14 -127.8 28 -127.4 39.6 -122C51.3 -116.6 60.7 -106.2 71.1 -97.9C81.6 -89.6 93.1 -83.5 102 -74.1C111 -64.8 117.3 -52.3 121.3 -39.4C125.2 -26.5 126.7 -13.3 128.3 0L0 0Z" fill="#176b6b"></path></g></svg>