<svg id="visual" viewBox="0 0 1920 1080" width="1920" height="1080" xmlns="http://www.w3.org/2000/svg" xmlns:xlink="http://www.w3.org/1999/xlink" version="1.1"><rect x="0" y="0" width="1920" height="1080" fill="#89939a"></rect><path d="M0 306L45.7 310.8C91.3 315.7 182.7 325.3 274.2 328.2C365.7 331 457.3 327 548.8 318C640.3 309 731.7 295 823 294.5C914.3 294 1005.7 307 1097 313.5C1188.3 320 1279.7 320 1371.2 320.3C1462.7 320.7 1554.3 321.3 1645.8 315.7C1737.3 310 1828.7 298 1874.3 292L1920 286L1920 0L1874.3 0C1828.7 0 1737.3 0 1645.8 0C1554.3 0 1462.7 0 1371.2 0C1279.7 0 1188.3 0 1097 0C1005.7 0 914.3 0 823 0C731.7 0 640.3 0 548.8 0C457.3 0 365.7 0 274.2 0C182.7 0 91.3 0 45.7 0L0 0Z" fill="#141f3b"></path><path d="M0 284L45.7 281.8C91.3 279.7 182.7 275.3 274.2 270.7C365.7 266 457.3 261 548.8 261.2C640.3 261.3 731.7 266.7 823 269C914.3 271.3 1005.7 270.7 1097 264.3C1188.3 258 1279.7 246 1371.2 245.8C1462.7 245.7 1554.3 257.3 1645.8 263.2C1737.3 269 1828.7 269 1874.3 269L1920 269L1920 0L1874.3 0C1828.7 0 1737.3 0 1645.8 0C1554.3 0 1462.7 0 1371.2 0C1279.7 0 1188.3 0 1097 0C1005.7 0 914.3 0 823 0C731.7 0 640.3 0 548.8 0C457.3 0 365.7 0 274.2 0C182.7 0 91.3 0 45.7 0L0 0Z" fill="#413f58"></path><path d="M0 185L45.7 186C91.3 187 182.7 189 274.2 189.8C365.7 190.7 457.3 190.3 548.8 196C640.3 201.7 731.7 213.3 823 214.8C914.3 216.3 1005.7 207.7 1097 204.3C1188.3 201 1279.7 203 1371.2 209C1462.7 215 1554.3 225 1645.8 227.5C1737.3 230 1828.7 225 1874.3 222.5L1920 220L1920 0L1874.3 0C1828.7 0 1737.3 0 1645.8 0C1554.3 0 1462.7 0 1371.2 0C1279.7 0 1188.3 0 1097 0C1005.7 0 914.3 0 823 0C731.7 0 640.3 0 548.8 0C457.3 0 365.7 0 274.2 0C182.7 0 91.3 0 45.7 0L0 0Z" fill="#6b6476"></path><path d="M0 191L45.7 186.3C91.3 181.7 182.7 172.3 274.2 169.3C365.7 166.3 457.3 169.7 548.8 168.3C640.3 167 731.7 161 823 155C914.3 149 1005.7 143 1097 145.7C1188.3 148.3 1279.7 159.7 1371.2 161.3C1462.7 163 1554.3 155 1645.8 158.7C1737.3 162.3 1828.7 177.7 1874.3 185.3L1920 193L1920 0L1874.3 0C1828.7 0 1737.3 0 1645.8 0C1554.3 0 1462.7 0 1371.2 0C1279.7 0 1188.3 0 1097 0C1005.7 0 914.3 0 823 0C731.7 0 640.3 0 548.8 0C457.3 0 365.7 0 274.2 0C182.7 0 91.3 0 45.7 0L0 0Z" fill="#6b6476"></path><path d="M0 140L45.7 138C91.3 136 182.7 132 274.2 123.7C365.7 115.3 457.3 102.7 548.8 104.5C640.3 106.3 731.7 122.7 823 123C914.3 123.3 1005.7 107.7 1097 99.2C1188.3 90.7 1279.7 89.3 1371.2 94.5C1462.7 99.7 1554.3 111.3 1645.8 111.8C1737.3 112.3 1828.7 101.7 1874.3 96.3L1920 91L1920 0L1874.3 0C1828.7 0 1737.3 0 1645.8 0C1554.3 0 1462.7 0 1371.2 0C1279.7 0 1188.3 0 1097 0C1005.7 0 914.3 0 823 0C731.7 0 640.3 0 548.8 0C457.3 0 365.7 0 274.2 0C182.7 0 91.3 0 45.7 0L0 0Z" fill="#413f58"></path><path d="M0 70L45.7 68.7C91.3 67.3 182.7 64.7 274.2 62.7C365.7 60.7 457.3 59.3 548.8 62.3C640.3 65.3 731.7 72.7 823 74.3C914.3 76 1005.7 72 1097 65C1188.3 58 1279.7 48 1371.2 46.2C1462.7 44.3 1554.3 50.7 1645.8 58.3C1737.3 66 1828.7 75 1874.3 79.5L1920 84L1920 0L1874.3 0C1828.7 0 1737.3 0 1645.8 0C1554.3 0 1462.7 0 1371.2 0C1279.7 0 1188.3 0 1097 0C1005.7 0 914.3 0 823 0C731.7 0 640.3 0 548.8 0C457.3 0 365.7 0 274.2 0C182.7 0 91.3 0 45.7 0L0 0Z" fill="#141f3b"></path></svg>